<?xml version="1.0" encoding="UTF-8"?>
<svg xmlns="http://www.w3.org/2000/svg" xmlns:xlink="http://www.w3.org/1999/xlink" width="19px" height="12px" viewBox="0 0 19 12" version="1.1">
<g id="surface1">
<path style=" stroke:none;fill-rule:nonzero;fill:rgb(0%,0%,0%);fill-opacity:1;" d="M 11.460938 5.355469 C 11.515625 5.582031 11.554688 5.808594 11.554688 6.105469 C 11.554688 8.675781 9.371094 10.5 6.078125 10.5 C 2.929688 10.5 0.378906 8.488281 0.378906 6 C 0.378906 3.511719 2.929688 1.5 6.078125 1.5 C 7.621094 1.5 8.902344 1.941406 9.898438 2.679688 L 8.351562 3.851562 C 7.929688 3.53125 7.191406 3.15625 6.078125 3.15625 C 4.136719 3.15625 2.550781 4.429688 2.550781 6 C 2.550781 7.570312 4.136719 8.84375 6.078125 8.84375 C 8.335938 8.84375 9.183594 7.558594 9.316406 6.902344 L 6.078125 6.902344 L 6.078125 5.355469 Z M 16.964844 5.507812 L 16.964844 4.199219 L 15.304688 4.199219 L 15.304688 5.507812 L 13.648438 5.507812 L 13.648438 6.820312 L 15.304688 6.820312 L 15.304688 8.125 L 16.964844 8.125 L 16.964844 6.820312 L 18.621094 6.820312 L 18.621094 5.507812 Z M 16.964844 5.507812 "/>
</g>
</svg>
