<?xml version="1.0" encoding="UTF-8"?>
<svg xmlns="http://www.w3.org/2000/svg" xmlns:xlink="http://www.w3.org/1999/xlink" width="14px" height="14px" viewBox="0 0 14 14" version="1.1">
<g id="surface1">
<path style=" stroke:none;fill-rule:nonzero;fill:rgb(0%,0%,0%);fill-opacity:1;" d="M 3.132812 12.25 L 0.230469 12.25 L 0.230469 4.070312 L 3.132812 4.070312 Z M 1.679688 2.957031 C 0.753906 2.957031 0 2.28125 0 1.472656 C 0 0.660156 0.753906 0 1.679688 0 C 2.609375 0 3.363281 0.660156 3.363281 1.472656 C 3.363281 2.28125 2.609375 2.957031 1.679688 2.957031 Z M 13.996094 12.25 L 11.101562 12.25 L 11.101562 8.269531 C 11.101562 7.320312 11.078125 6.101562 9.589844 6.101562 C 8.082031 6.101562 7.851562 7.132812 7.851562 8.199219 L 7.851562 12.25 L 4.953125 12.25 L 4.953125 4.070312 L 7.734375 4.070312 L 7.734375 5.1875 L 7.777344 5.1875 C 8.164062 4.542969 9.109375 3.867188 10.523438 3.867188 C 13.460938 3.867188 14 5.558594 14 7.757812 L 14 12.25 Z M 13.996094 12.25 "/>
</g>
</svg>
