<?xml version="1.0" encoding="UTF-8"?>
<svg xmlns="http://www.w3.org/2000/svg" xmlns:xlink="http://www.w3.org/1999/xlink" width="16px" height="13px" viewBox="0 0 16 13" version="1.1">
<g id="surface1">
<path style=" stroke:none;fill-rule:nonzero;fill:rgb(0%,0%,0%);fill-opacity:1;" d="M 14.355469 3.851562 C 14.367188 3.96875 14.367188 4.082031 14.367188 4.199219 C 14.367188 7.722656 11.066406 11.777344 5.035156 11.777344 C 3.175781 11.777344 1.453125 11.34375 0 10.582031 C 0.265625 10.609375 0.519531 10.617188 0.792969 10.617188 C 2.324219 10.617188 3.734375 10.195312 4.863281 9.476562 C 3.421875 9.453125 2.214844 8.6875 1.796875 7.628906 C 2 7.65625 2.203125 7.671875 2.417969 7.671875 C 2.710938 7.671875 3.003906 7.636719 3.277344 7.582031 C 1.777344 7.332031 0.648438 6.261719 0.648438 4.964844 L 0.648438 4.933594 C 1.085938 5.128906 1.59375 5.253906 2.132812 5.269531 C 1.25 4.792969 0.671875 3.976562 0.671875 3.050781 C 0.671875 2.558594 0.832031 2.101562 1.117188 1.707031 C 2.730469 3.324219 5.15625 4.378906 7.878906 4.496094 C 7.828125 4.296875 7.796875 4.089844 7.796875 3.886719 C 7.796875 2.417969 9.257812 1.222656 11.074219 1.222656 C 12.019531 1.222656 12.871094 1.542969 13.472656 2.0625 C 14.214844 1.945312 14.921875 1.722656 15.554688 1.417969 C 15.308594 2.039062 14.792969 2.558594 14.113281 2.886719 C 14.773438 2.828125 15.410156 2.679688 16 2.476562 C 15.554688 3.003906 14.996094 3.472656 14.355469 3.851562 Z M 14.355469 3.851562 "/>
</g>
</svg>
